HIERARCHY
ROOT Hips
{
     OFFSET 1.88212 96.90440 -13.34250
     CHANNELS 6 Xposition Yposition Zposition Zrotation Xrotation Yrotation
     JOINT Spine
     {
          OFFSET 0.00000 11.89050 0.00000
          CHANNELS 3 Zrotation Xrotation Yrotation
          JOINT Spine1
          {
               OFFSET -0.00000 25.65740 0.12766
               CHANNELS 3 Zrotation Xrotation Yrotation
               JOINT HEad
               {
                    OFFSET 0.00000 8.73416 0.01134
                    CHANNELS 3 Zrotation Xrotation Yrotation
                    End Site
                    {
                         OFFSET -0.29000 12.77420 2.51395
                    }
               }
               JOINT LeftShoulder1
               {
                    OFFSET 8.99000 -0.36225 -0.22000
                    CHANNELS 3 Zrotation Xrotation Yrotation
                    JOINT LeftArm
                    {
                         OFFSET 10.28270 -0.00338 0.32212
                         CHANNELS 3 Zrotation Xrotation Yrotation
                         JOINT LeftForeArm
                         {
                              OFFSET 32.76690 0.09914 -1.42434
                              CHANNELS 3 Zrotation Xrotation Yrotation
                              JOINT LeftHand
                              {
                                   OFFSET 27.56430 0.08536 1.02216
                                   CHANNELS 3 Zrotation Xrotation Yrotation
                                   End Site
                                   {
                                        OFFSET 16.74430 -0.60000 1.50291
                                   }
                              }
                         }
                    }
               }
               JOINT RightShoulder
               {
                    OFFSET -8.99000 -0.36225 -0.22000
                    CHANNELS 3 Zrotation Xrotation Yrotation
                    JOINT RightArm
                    {
                         OFFSET -10.28270 -0.00338 0.32212
                         CHANNELS 3 Zrotation Xrotation Yrotation
                         JOINT RightForeArm
                         {
                              OFFSET -32.89710 0.09914 -1.42434
                              CHANNELS 3 Zrotation Xrotation Yrotation
                              JOINT RightHand
                              {
                                   OFFSET -27.49210 0.08536 1.02216
                                   CHANNELS 3 Zrotation Xrotation Yrotation
                                   End Site
                                   {
                                        OFFSET -16.63120 -0.60000 1.50291
                                   }
                              }
                         }
                    }
               }
          }
     }
     JOINT LeftUpLeg
     {
          OFFSET 8.94580 -8.66707 0.10165
          CHANNELS 3 Zrotation Xrotation Yrotation
          JOINT LeftLeg
          {
               OFFSET 0.00000 -44.42270 1.37270
               CHANNELS 3 Zrotation Xrotation Yrotation
               JOINT LeftFoot
               {
                    OFFSET -0.25355 -42.09240 -1.46059
                    CHANNELS 3 Zrotation Xrotation Yrotation
                    JOINT LeftToes
                    {
                         OFFSET -0.04000 -4.41509 8.49910
                         CHANNELS 3 Zrotation Xrotation Yrotation
                         End Site
                         {
                              OFFSET 0.08000 -0.04745 9.77979
                         }
                    }
               }
          }
     }
     JOINT RightUpLeg
     {
          OFFSET -8.94580 -8.66707 0.10165
          CHANNELS 3 Zrotation Xrotation Yrotation
          JOINT RightLeg
          {
               OFFSET 0.00000 -44.42270 1.37270
               CHANNELS 3 Zrotation Xrotation Yrotation
               JOINT RightFoot
               {
                    OFFSET 0.25355 -42.09240 -1.46059
                    CHANNELS 3 Zrotation Xrotation Yrotation
                    JOINT RightToes
                    {
                         OFFSET 0.04000 -4.41509 8.49910
                         CHANNELS 3 Zrotation Xrotation Yrotation
                         End Site
                         {
                              OFFSET -0.08000 -0.13745 9.77979
                         }
                    }
               }
          }
     }
}
MOTION
Frames: 10
Frame Time: 0.01667
45.04164 87.39612 -122.71941 0.44857 0.72814 -17.36644 -2.40275 17.48007 4.29643 0.00345 -0.00354 -0.00218 -16.40096 7.40465 26.34761 1.06530 4.08217 5.00308 -155.63408 -62.63229 -139.48141 -50.58575 52.56519 -86.96714 5.40413 9.88945 0.68603 8.90251 5.70957 8.82347 79.38625 -17.73683 83.70197 26.21173 40.03922 94.56068 -3.64944 10.62233 -0.64124 -1.29346 -32.66723 14.04946 31.40689 20.40677 -38.81207 -19.26607 -0.00152 -0.00174 -7.42599 -6.46687 -5.75472 -10.05118 -3.06257 -10.67110 -15.67290 40.62055 10.98118 -27.73351 -0.01192 -0.71971 42.61802 -17.31422 -10.70293 
44.07312 86.02541 -123.60314 0.50647 0.41988 -17.39224 -2.50441 18.24450 4.64570 0.00069 -0.00344 -0.00372 -16.14329 6.64837 25.69473 0.43616 3.72306 4.58630 -156.72168 -62.28756 -140.73883 -51.66145 53.32304 -86.73780 5.54332 9.76348 0.78163 8.60459 5.33907 8.32575 79.35738 -18.48510 83.50163 26.57651 40.49609 95.31959 -3.76877 10.70065 -0.75297 1.08768 -34.05171 13.54821 30.25837 23.58224 -38.53352 -19.54978 -0.00244 -0.00240 -7.94954 -7.54927 -6.18660 -10.13456 -4.42513 -10.93807 -14.71293 46.03786 8.51256 -4.19522 0.01271 0.81230 16.82897 -18.87308 -9.34172 
42.72927 84.59045 -124.73872 0.53631 0.03148 -17.48864 -2.67207 18.90180 5.00164 -0.00038 -0.00554 -0.00715 -15.72794 5.95457 25.09862 -0.14288 3.34928 3.99538 -158.04655 -62.23114 -142.30148 -52.85732 53.99093 -86.30508 5.56159 9.74261 1.02083 8.20997 4.91105 7.60905 79.40150 -19.03796 83.18882 26.95365 40.97597 96.12131 -3.69716 10.80064 -0.83457 4.27336 -35.51388 12.68815 28.06258 27.50412 -37.48155 -19.81389 -0.00261 -0.00264 -7.90081 -8.72842 -6.35296 -10.55488 -6.11843 -11.05498 -14.29037 52.57787 6.26443 19.40913 0.74959 0.86247 -11.41611 -5.23520 -10.23357 
41.20132 83.23960 -125.97316 0.51283 -0.40478 -17.66111 -2.89057 19.43120 5.36109 -0.00183 -0.00690 -0.00854 -15.15297 5.33686 24.58784 -0.52879 3.01947 3.39788 -159.55638 -62.42276 -143.98512 -54.08191 54.46767 -85.71319 5.58444 9.83029 1.26187 7.82942 4.50667 6.86889 79.43295 -19.49864 82.81759 27.30292 41.44491 96.86818 -3.87636 10.77518 -1.02186 8.12175 -36.86493 11.43147 24.59256 31.77690 -35.30350 -20.07570 -0.00233 -0.00264 -7.61370 -9.80005 -6.37749 -11.28709 -8.07764 -11.04996 -14.01632 59.86409 3.77399 43.14703 1.20696 0.42479 -34.51333 -15.11547 -6.55143 
39.54076 82.03024 -127.30983 0.42848 -0.85085 -17.92992 -3.15259 19.40621 5.48297 -0.01130 -0.00664 -0.00927 -14.41602 5.14622 24.53386 -0.68454 3.09859 3.03453 -161.35373 -62.94199 -145.88716 -55.18711 54.76001 -85.09135 5.45928 10.00008 1.49269 6.70346 4.41386 6.09186 80.28877 -19.38366 83.77570 28.72672 40.26222 96.49074 -7.31674 10.20578 0.16215 12.43200 -37.90034 9.70238 19.56778 35.85537 -31.55383 -20.35619 -0.00152 -0.00235 -6.86385 -10.68607 -6.07519 -12.30617 -9.95806 -10.94105 -14.52629 68.00741 1.24249 17.94734 -1.46107 -0.39375 -9.09947 2.56959 -8.37862 
37.70496 81.15550 -128.85005 0.31156 -1.28946 -18.33185 -3.42956 18.89897 5.38249 -0.00424 -0.00474 -0.00652 -13.63736 5.36770 24.92126 -0.45403 3.26337 2.88917 -163.88716 -64.18477 -148.24934 -56.02433 54.77951 -84.67434 5.24782 10.54960 1.91488 6.31530 4.50952 5.78254 80.26465 -19.26098 83.92362 29.46197 39.89168 96.21879 -2.91593 10.84503 -2.25932 16.84461 -38.31157 7.36973 12.93393 38.80891 -25.83696 -20.76408 0.00031 -0.00133 -5.12372 -10.81155 -4.80927 -14.17896 -11.25491 -10.43245 -7.74536 73.26122 -7.42082 -7.86676 -0.82210 -1.03721 14.71065 -7.59174 -2.82747 
35.95832 80.43442 -130.35593 0.18743 -1.69876 -18.87082 -3.68431 17.96884 5.08512 -0.00140 0.00022 -0.00168 -12.88316 5.96505 25.69039 -0.04143 3.69988 3.05748 -167.11150 -65.77904 -151.19115 -56.57957 54.57864 -84.46024 5.01778 10.77242 1.95427 6.19704 4.92874 5.95658 79.82434 -19.22886 83.61186 29.77932 39.70648 96.14462 -5.84318 10.40808 -1.04657 20.98434 -38.03063 4.31148 5.15993 40.01522 -18.33476 -21.29557 0.00146 0.00082 -3.29901 -10.17218 -3.32052 -16.41895 -11.79900 -9.49488 9.97372 75.34645 -26.06401 -34.61650 -0.30714 -0.89857 45.67561 5.04297 -15.56327 
34.30111 79.95049 -131.83997 0.04786 -2.04535 -19.54550 -3.84553 16.67064 4.61807 0.00027 0.00548 0.00351 -12.24466 6.89510 26.78358 0.43578 4.37716 3.50040 -171.14850 -67.58112 -154.88487 -56.86091 54.22540 -84.46308 4.80974 11.15230 1.98424 6.16259 5.61683 6.59213 79.08669 -19.24911 82.88402 29.66135 39.77909 96.20137 -3.34330 10.66241 -2.39471 24.64307 -37.01273 0.52892 -2.78122 39.06177 -9.80035 -21.96144 0.00194 0.00372 9.65871 -2.38033 11.32206 -19.25372 -11.42217 -8.20669 23.46261 74.70549 -39.29244 -9.45444 0.28072 0.36166 18.00851 -1.40460 -9.84033 
32.53812 79.89407 -133.60362 -0.11310 -2.29157 -20.32828 -3.93433 15.39486 4.33199 0.00222 0.00520 0.00487 -11.71827 7.84686 27.77778 0.92892 4.86855 3.95289 -176.15424 -69.50353 -159.49112 -56.89763 53.79861 -84.79562 4.70622 11.44995 1.88047 6.15263 6.10691 7.33632 78.00957 -19.34623 81.86449 29.34031 39.81168 96.38191 -5.00299 10.27781 -1.41981 27.91208 -35.95417 -2.97776 -9.26501 36.02043 -0.08981 -22.84579 0.02736 0.00870 5.10540 -2.45942 4.41988 -22.60894 -10.18008 -6.48506 30.95738 72.91850 -47.09567 -3.80234 0.20135 -0.05551 13.13333 2.76215 -8.96017 
30.83138 80.06506 -135.42892 -0.27509 -2.43129 -21.15815 -3.94593 14.15868 4.18003 0.00160 0.00739 0.00674 -11.31433 8.78508 28.66525 1.25251 5.34640 4.39830 -181.96579 -71.18607 -164.97614 -56.77425 53.40371 -85.27134 4.61019 11.36026 1.81334 6.11684 6.59017 8.13694 76.71898 -19.50862 80.81303 28.88567 39.86922 96.57973 -3.52344 10.25308 -2.14507 30.55615 -34.90407 -6.33422 -15.09209 34.32560 10.32071 -13.39650 -0.25437 -0.00832 3.94384 12.11470 16.79540 -25.86058 -8.43206 -4.17791 39.99056 68.75005 -55.58219 0.87852 0.13836 -0.01211 6.72354 2.55068 -5.52874 
